<svg width="22" height="22" viewBox="0 0 22 22" fill="none" xmlns="http://www.w3.org/2000/svg">
<path d="M1.05628 3.44262L8.61366 11L1.05628 18.5574C0.397897 19.2158 0.397897 20.2853 1.05628 20.9437L1.36565 20.6344L1.05628 20.9437C1.71467 21.6021 2.78423 21.6021 3.44262 20.9437L11 13.3863L18.5574 20.9437C19.2158 21.6021 20.2853 21.6021 20.9437 20.9437C21.6021 20.2853 21.6021 19.2158 20.9437 18.5574L13.3863 11L20.9437 3.44262C21.6021 2.78423 21.6021 1.71467 20.9437 1.05628L20.6344 1.36565L20.9437 1.05628C20.2853 0.397897 19.2158 0.397897 18.5574 1.05628L11 8.61366L3.44262 1.05628C2.78423 0.397897 1.71467 0.397897 1.05628 1.05628C0.397897 1.71467 0.397897 2.78423 1.05628 3.44262Z" fill="white" stroke="white" stroke-width="0.875013"/>
</svg>
