<svg width="29" height="29" viewBox="0 0 29 29" fill="none" xmlns="http://www.w3.org/2000/svg">
<g clip-path="url(#clip0)">
<path d="M14.8631 0.617126C17.6018 0.617126 20.8277 0.749119 24.5418 1.0129C26.7497 1.16971 28.5166 2.90731 28.7103 5.1123C28.8901 7.15878 28.9799 9.30723 28.9799 11.5577C28.9799 13.8171 28.8894 15.9737 28.7082 18.0275C28.514 20.2286 26.7521 21.9639 24.5483 22.1246C22.6213 22.2651 20.6943 22.3634 18.7672 22.4194L16.5423 26.7925C16.357 27.1566 16.0611 27.4526 15.697 27.6378C14.7466 28.1213 13.5842 27.7429 13.1007 26.7925L10.8728 22.4135C8.96252 22.3556 7.03806 22.2571 5.09938 22.1181C2.89324 21.9598 1.12832 20.2234 0.934181 18.0201C0.753412 15.9685 0.663086 13.8144 0.663086 11.5577C0.663086 9.30814 0.752844 7.1605 0.932475 5.11477C1.12617 2.90884 2.89436 1.17078 5.10329 1.01503C8.8642 0.749829 12.1171 0.617126 14.8631 0.617126ZM14.1779 14.7525H9.67299C8.8149 14.7525 8.8149 16.0396 9.67299 16.0396H14.1779C15.036 16.0396 15.036 14.7525 14.1779 14.7525ZM19.97 10.8911H9.67299C8.8149 10.8911 8.8149 12.1782 9.67299 12.1782H19.97C20.8281 12.1782 20.8281 10.8911 19.97 10.8911ZM19.97 7.02969H9.67299C8.8149 7.02969 8.8149 8.31681 9.67299 8.31681H19.97C20.8281 8.31681 20.8281 7.02969 19.97 7.02969Z" fill="white"/>
</g>
<defs>
<clipPath id="clip0">
<rect x="0.663086" y="0.594055" width="28.3168" height="27.6733" fill="white"/>
</clipPath>
</defs>
</svg>
